<?xml version="1.0" encoding="UTF-8"?>
<svg width="16px" height="16px" viewBox="0 0 16 16" version="1.1" xmlns="http://www.w3.org/2000/svg" xmlns:xlink="http://www.w3.org/1999/xlink">
    <title>16pt/可达</title>
    <g id="页面-2-圆角" stroke="none" stroke-width="1" fill="none" fill-rule="evenodd">
        <g id="svg已轮廓化" transform="translate(-413.000000, -669.000000)" fill-rule="nonzero">
            <g id="price_icon_16pt_1size" transform="translate(413.000000, 669.000000)">
                <rect id="Rectangle" x="0" y="0" width="16" height="16"></rect>
                <g id="资源-11" transform="translate(3.000000, 0.500000)" fill="#000F16">
                    <path d="M4.734,10.702 C7.52831578,10.702 9.826,11.6343257 9.826,12.976 C9.826,14.3176743 7.52831578,15.25 4.734,15.25 C1.94134693,15.25 -0.35,14.3180741 -0.35,12.976 C-0.35,11.9313753 1.01559784,11.141999 2.99178873,10.8337293 L3.23181416,10.7990607 L3.32418584,11.4929393 C1.53688358,11.7308716 0.35,12.3820233 0.35,12.976 C0.35,13.7593163 2.29407159,14.55 4.734,14.55 C7.17531524,14.55 9.126,13.7584754 9.126,12.976 C9.126,12.2205065 7.30752574,11.4565771 4.98473982,11.4047907 L4.734,11.402 L4.734,10.702 Z" id="路径"></path>
                    <path d="M4.0369231,-0.101175028 C6.29597837,-0.492481543 8.47897886,0.909286338 9.06314938,3.12631053 C9.62906457,5.27405272 8.51231872,7.49542749 6.47951682,8.33466957 L6.27996009,8.41152301 L6.04403991,7.75247699 C7.86059139,7.10220198 8.87786602,5.17042084 8.38625308,3.30466802 C7.89464013,1.4389152 6.0575202,0.259247256 4.15639583,0.588554098 C2.25527146,0.917860939 0.921954426,2.6467021 1.08651419,4.56910605 C1.24539949,6.42522021 2.74965832,7.86619569 4.58985214,7.96463277 L4.787,7.97 C5.0370046,7.97018159 5.15320412,8.16928059 5.13655756,8.35506678 L5.123,8.426 L5.124,13.3 L4.424,13.3 L4.423,8.653 L4.36266937,8.64943641 C2.3329344,8.453616 0.685543926,6.88050633 0.412380338,4.84137778 L0.389064822,4.62880844 C0.19352285,2.34446722 1.77786784,0.290131488 4.0369231,-0.101175028 Z" id="路径"></path>
                    <path d="M4.4089638,1.37418678 L5.0590362,1.63381322 L4.218,3.738 L5.766,3.738 C5.98881541,3.738 6.14824101,3.94050803 6.11091397,4.14859945 L6.09100155,4.21789992 L5.05900155,6.79989992 L4.40899845,6.54010008 L5.248,4.438 L3.702,4.438 C3.47922049,4.438 3.31979977,4.23555205 3.35707193,4.02748178 L3.3769638,3.95818678 L4.4089638,1.37418678 Z" id="路径"></path>
                </g>
            </g>
        </g>
    </g>
</svg>