<?xml version="1.0" encoding="UTF-8"?>
<svg width="16px" height="16px" viewBox="0 0 16 16" version="1.1" xmlns="http://www.w3.org/2000/svg" xmlns:xlink="http://www.w3.org/1999/xlink">
    <title>16pt/电池</title>
    <g id="页面-2-圆角" stroke="none" stroke-width="1" fill="none" fill-rule="evenodd">
        <g id="svg已轮廓化" transform="translate(-350.000000, -669.000000)" fill-rule="nonzero">
            <g id="price_icon_16pt_1size" transform="translate(350.000000, 669.000000)">
                <rect id="Rectangle" x="0" y="0" width="16" height="16"></rect>
                <g id="资源-7" transform="translate(4.000000, 1.000000)" fill="#000F16">
                    <polygon id="路径" points="6.51538462 11.8066667 6.51538462 12.5066667 1.38205128 12.5066667 1.38205128 11.8066667"></polygon>
                    <polygon id="路径" points="6.51538462 9.80897436 6.51538462 10.5089744 1.38205128 10.5089744 1.38205128 9.80897436"></polygon>
                    <polygon id="路径" points="6.51538462 7.81128205 6.51538462 8.51128205 1.38205128 8.51128205 1.38205128 7.81128205"></polygon>
                    <polygon id="路径" points="6.51538462 5.81358974 6.51538462 6.51358974 1.38205128 6.51358974 1.38205128 5.81358974"></polygon>
                    <path d="M4.95564103,-0.35 C5.50613203,-0.35 5.95934182,0.0665103901 6.01732317,0.601583939 L6.02358974,0.717948718 L6.023,1.254 L7.17948718,1.25461538 C7.72997818,1.25461538 8.18318797,1.67112577 8.24116932,2.20619932 L8.2474359,2.3225641 L8.2474359,2.81974359 L7.5474359,2.81974359 L7.5474359,2.3225641 C7.5474359,2.1447532 7.4213097,1.99640064 7.25364168,1.96209079 L7.17948718,1.95461538 L5.67358974,1.95461538 C5.50445254,1.95461538 5.36333669,1.83464169 5.3307005,1.67515259 L5.32358974,1.60461538 L5.32358974,0.717948718 C5.32358974,0.540137811 5.19746355,0.391785254 5.02979553,0.35747541 L4.95564103,0.35 L2.98128205,0.35 C2.80347114,0.35 2.65511859,0.476126193 2.62080874,0.643794217 L2.61333333,0.717948718 L2.61333333,1.60461538 C2.61333333,1.77375259 2.49335964,1.91486844 2.33387054,1.94750463 L2.26333333,1.95461538 L0.717948718,1.95461538 C0.540137811,1.95461538 0.391785254,2.08074158 0.35747541,2.2484096 L0.35,2.3225641 L0.35,13.2820513 C0.35,13.4598622 0.476126193,13.6082147 0.643794217,13.6425246 L0.717948718,13.65 L7.17948718,13.65 C7.35729809,13.65 7.50565064,13.5238738 7.53996049,13.3562058 L7.5474359,13.2820513 L7.5474359,3.89666667 L8.2474359,3.89666667 L8.2474359,13.2820513 C8.2474359,13.8325423 7.83092551,14.2857521 7.29585196,14.3437334 L7.17948718,14.35 L0.717948718,14.35 C0.167457713,14.35 -0.285752077,13.9334896 -0.343733422,13.3984161 L-0.35,13.2820513 L-0.35,2.3225641 C-0.35,1.7720731 0.0665103901,1.31886331 0.601583939,1.26088196 L0.717948718,1.25461538 L1.913,1.254 L1.91333333,0.717948718 C1.91333333,0.167457713 2.32984372,-0.285752077 2.86491727,-0.343733422 L2.98128205,-0.35 L4.95564103,-0.35 Z" id="路径"></path>
                </g>
            </g>
        </g>
    </g>
</svg>