<?xml version="1.0" encoding="UTF-8"?>
<svg width="16px" height="16px" viewBox="0 0 16 16" version="1.1" xmlns="http://www.w3.org/2000/svg" xmlns:xlink="http://www.w3.org/1999/xlink">
    <title>16pt/快慢充总数</title>
    <g id="页面-2-圆角" stroke="none" stroke-width="1" fill="none" fill-rule="evenodd">
        <g id="svg已轮廓化" transform="translate(-320.000000, -669.000000)" fill-rule="nonzero">
            <g id="price_icon_16pt_1size" transform="translate(320.000000, 669.000000)">
                <rect id="Rectangle" x="0" y="0" width="16" height="16"></rect>
                <g id="资源-10" transform="translate(2.000000, 1.500000)" fill="#000F16">
                    <path d="M5.17917371,0.101588046 L9.09447059,4.1363 C9.23140674,4.27211784 9.30843137,4.45699885 9.30843137,4.64986667 C9.30843137,4.80416092 9.25913561,4.95334362 9.16787104,5.07779101 L9.09166796,5.16618207 L7.36510833,6.84051857 C7.2291525,6.97857242 7.04349312,7.05630908 6.84973333,7.05630908 C6.69472551,7.05630908 6.54490194,7.00655762 6.42063349,6.91502212 L6.33254203,6.83866049 L3.448,3.866 L2.66373333,3.8668 L2.66373333,3.1668 L3.59706667,3.1668 C3.66805878,3.1668 3.7367806,3.18836576 3.79451243,3.22780817 L3.84825797,3.27307284 L6.83310833,6.34934809 C6.83749401,6.35380144 6.84348302,6.35630908 6.84973333,6.35630908 L6.85945846,6.35379066 L6.87206538,6.3436846 L8.60152941,4.66643333 C8.60594671,4.66205211 8.60843137,4.65608821 8.60843137,4.64986667 L8.60604899,4.64029887 L4.67682629,0.58907862 L5.17917371,0.101588046 Z" id="路径"></path>
                    <path d="M7.25770226,-0.00466666667 C7.71283721,-0.00453367376 8.15025389,0.161365968 8.48988947,0.458745288 L8.61251295,0.576358676 L11.0577947,3.14670451 C11.3306642,3.4334072 11.4781274,3.81697151 11.4675948,4.21262949 C11.4583788,4.55883022 11.3288613,4.88934912 11.1037277,5.14876982 L11.0014598,5.2554356 L10.3462598,5.87330227 L9.86600688,5.36403107 L10.521002,4.74635779 C10.6734392,4.60237447 10.7622628,4.40361374 10.7678427,4.19400183 C10.7723067,4.02631231 10.7232006,3.86272325 10.6293381,3.72620005 L10.550687,3.62924132 L8.10545684,1.05894968 C7.91602457,0.859999224 7.66380912,0.735028775 7.3938498,0.703324186 L7.2576,0.695333333 L2.65813333,0.695333333 L2.65813333,-0.00466666667 L7.25770226,-0.00466666667 Z" id="路径"></path>
                    <path d="M9.51964576,5.27986354 L6.99031243,5.27986354 C6.79701277,5.27986354 6.64031243,5.43656388 6.64031243,5.62986354 L6.64031243,6.35599687 C6.64031243,6.54929653 6.79701277,6.70599687 6.99031243,6.70599687 L9.51964576,6.70599687 C9.71294543,6.70599687 9.86964576,6.54929653 9.86964576,6.35599687 L9.86964576,5.62986354 C9.86964576,5.43656388 9.71294543,5.27986354 9.51964576,5.27986354 Z" id="矩形" transform="translate(8.254979, 5.992930) rotate(-44.140000) translate(-8.254979, -5.992930) "></path>
                    <path d="M2.12613333,-0.35 L0,-0.35 C-0.193299662,-0.35 -0.35,-0.193299662 -0.35,-5.55111512e-17 L-0.35,3.92 C-0.35,4.11329966 -0.193299662,4.27 0,4.27 L2.12613333,4.27 C2.61324848,4.27 3.00813333,3.87511515 3.00813333,3.388 L3.00813333,0.532 C3.00813333,0.0448848506 2.61324848,-0.35 2.12613333,-0.35 Z M0.35,3.569 L0.35,0.35 L2.12613333,0.35 C2.22664916,0.35 2.30813333,0.431484176 2.30813333,0.532 L2.30813333,3.388 C2.30813333,3.48851582 2.22664916,3.57 2.12613333,3.57 L0.35,3.569 Z" id="路径"></path>
                    <path d="M7.35190415,0.938 C7.55578305,0.938566863 7.75206404,1.00865831 7.91027283,1.13575395 L8.00038564,1.21875167 L10.3038523,3.680885 L9.79268103,4.159115 L7.49091822,1.69878998 C7.46645,1.67300569 7.43565638,1.65464782 7.40233545,1.64523074 L7.35093333,1.638 L5.94533333,1.638 L5.94533333,0.938 L7.35190415,0.938 Z" id="路径"></path>
                    <path d="M8.78346682,5.50001454 C8.90050817,5.38644562 9.07693844,5.37084934 9.21028939,5.45282287 L9.27290053,5.50193859 L9.53613035,5.76142232 C10.1521278,6.37796595 10.5172251,7.19807001 10.5662366,8.06189269 L10.5718667,8.27866667 L10.5718667,13.44 L9.87186667,13.44 L9.87187059,8.27700983 C9.87513036,7.58840491 9.62820151,6.92455279 9.18246621,6.40836493 L9.024,6.241 L8.455,6.793 L8.4786079,6.8169696 C8.82486798,7.16078174 9.03614089,7.61498205 9.07821867,8.09683654 L9.086,8.27866667 L9.086,13.44 L8.386,13.44 L8.38600042,8.2781245 C8.38648116,7.96778388 8.28057439,7.66832345 8.08742903,7.42736433 L7.98367511,7.31198035 L7.70927511,7.03571368 C7.59155126,6.91718899 7.57625033,6.73580909 7.66236364,6.60093592 L7.71386682,6.53788121 L8.78346682,5.50001454 Z" id="路径"></path>
                </g>
            </g>
        </g>
    </g>
</svg>