<?xml version="1.0" encoding="UTF-8"?>
<svg width="16px" height="16px" viewBox="0 0 16 16" version="1.1" xmlns="http://www.w3.org/2000/svg" xmlns:xlink="http://www.w3.org/1999/xlink">
    <title>16pt/终身免费</title>
    <g id="页面-2-圆角" stroke="none" stroke-width="1" fill="none" fill-rule="evenodd">
        <g id="svg已轮廓化" transform="translate(-380.000000, -669.000000)" fill-rule="nonzero">
            <g id="price_icon_16pt_1size" transform="translate(380.000000, 669.000000)">
                <rect id="Rectangle" x="0" y="0" width="16" height="16"></rect>
                <g id="资源-8" transform="translate(0.000000, 1.000000)">
                    <path d="M8.03848717,-0.168181685 C11.6028344,-0.165072036 14.5056235,2.6627691 14.6295179,6.19757925 L14.6336364,6.42909091 L14.6336364,6.70909091 L13.9336364,6.70909091 L13.9336364,6.42929438 C13.9317868,3.24765413 11.4120657,0.654931604 8.25887091,0.536072963 L8.03787647,0.531818049 L8.03848717,-0.168181685 Z" id="路径" fill="#000F16"></path>
                    <path d="M4.66705808,-0.247487373 L1.06342172,3.35614899 C0.926738215,3.49283249 0.926738215,3.71444023 1.06342172,3.85112374 L3.35433081,6.14203283 C3.49101431,6.27871633 3.71262205,6.27871633 3.84930556,6.14203283 L7.45294192,2.53839646 L7.50315218,2.47511356 C7.58683596,2.34012961 7.57009921,2.16057901 7.45294192,2.04342172 L7.28,1.871 L7.40973128,1.44256768 C7.44681442,1.31919494 7.41312616,1.18542414 7.32203283,1.09433081 L6.11112374,-0.116578283 L6.04738369,-0.166995375 C5.95607993,-0.223315269 5.84227722,-0.23543057 5.73920493,-0.196225161 L5.358,-0.051 L5.16203283,-0.247487373 C5.02534933,-0.384170876 4.80374158,-0.384170876 4.66705808,-0.247487373 Z M4.915,0.495 L5.02342172,0.60385101 L5.08716177,0.654268102 C5.17846552,0.710587997 5.29226824,0.722703297 5.39534052,0.683497888 L5.776,0.538 L6.679,1.441 L6.55026872,1.87015959 L6.53640447,1.9450064 C6.52895709,2.04533355 6.56509251,2.1455218 6.63796717,2.21839646 L6.71,2.291 L3.601,5.399 L1.806,3.604 L4.915,0.495 Z" id="路径" fill="#000000"></path>
                    <path d="M2.13727273,6.10909091 L2.13727273,6.42909091 C2.13727273,9.61400524 4.66047676,12.2095937 7.81695844,12.3259299 L8.03818182,12.33 L8.03818182,13.03 C4.47016595,13.03 1.56334382,10.1990931 1.44126448,6.66082836 L1.43727273,6.42909091 L1.43727273,6.10909091 L2.13727273,6.10909091 Z" id="路径" fill="#000000"></path>
                    <path d="M1.52160354,5.7452399 C1.63876082,5.62808261 1.81831143,5.61134586 1.95329538,5.69502963 L2.01657828,5.7452399 L2.83294192,6.56160354 L2.33796717,7.05657828 L1.769,6.488 L1.19657828,7.06021465 L0.701603536,6.5652399 L1.52160354,5.7452399 Z" id="路径" fill="#000000"></path>
                    <path d="M13.7256692,5.81614899 L14.287,6.378 L14.8479672,5.81705808 L15.3429419,6.31203283 L14.5347601,7.12021465 C14.4176028,7.23737193 14.2380522,7.25410869 14.1030683,7.17042491 L14.0397854,7.12021465 L13.2306944,6.31112374 L13.7256692,5.81614899 Z" id="路径" fill="#000000"></path>
                    <polygon id="路径" fill="#000000" points="4.40730939 0.565062043 5.67276393 1.82869841 5.17814516 2.32402887 3.91269061 1.0603925"></polygon>
                    <path d="M12.1979672,7.28342172 L8.59433081,10.8870581 C8.45764731,11.0237416 8.45764731,11.2453493 8.59433081,11.3820328 L10.8852399,13.6729419 C11.0219234,13.8096254 11.2435311,13.8096254 11.3802146,13.6729419 L14.983851,10.0693056 L15.0341438,10.0058909 C15.117923,9.8706213 15.1008723,9.69068517 14.9831449,9.57362672 L14.812,9.403 L14.9421905,8.97618236 C14.9796969,8.85259 14.9460886,8.7183866 14.8547601,8.62705808 L13.6420328,7.41433081 L13.5780638,7.36377225 C13.4864222,7.3073412 13.3721801,7.29542516 13.2689028,7.33514722 L12.89,7.48 L12.6929419,7.28342172 C12.5562584,7.14673822 12.3346507,7.14673822 12.1979672,7.28342172 Z M12.445,8.025 L12.556149,8.13657828 L12.6201181,8.18713684 C12.7117596,8.2435679 12.8260017,8.25548393 12.929279,8.21576187 L13.307,8.07 L14.211,8.974 L14.0814458,9.40199946 L14.0673528,9.47720584 C14.0597149,9.57803347 14.0961086,9.67877157 14.1695824,9.75182782 L14.24,9.822 L11.132,12.93 L9.337,11.134 L12.445,8.025 Z" id="路径" fill="#000000"></path>
                    <polygon id="路径" fill="#000000" points="10.1911237 9.84705808 11.4547601 11.1106944 10.9597854 11.6056692 9.69614899 10.3420328"></polygon>
                </g>
            </g>
        </g>
    </g>
</svg>