<svg width="3986" height="231" viewBox="0 0 3986 231" fill="none" xmlns="http://www.w3.org/2000/svg">
<g filter="url(#filter0_f_952_63694)">
<rect x="5" y="5" width="3976" height="220.445" rx="8" fill="url(#paint0_linear_952_63694)" fill-opacity="0.2"/>
</g>
<g filter="url(#filter1_b_952_63694)">
<path d="M5 13C5 8.58172 8.58172 5 13 5H3973C3977.42 5 3981 8.58172 3981 13V221C3981 225.418 3977.42 229 3973 229H13C8.58173 229 5 225.418 5 221V13Z" fill="white" fill-opacity="0.4"/>
<path d="M13 6H3973C3976.87 6 3980 9.13401 3980 13V221C3980 224.866 3976.87 228 3973 228H13C9.13401 228 6 224.866 6 221V13C6 9.134 9.13401 6 13 6Z" stroke="white" stroke-width="2"/>
</g>
<defs>
<filter id="filter0_f_952_63694" x="0" y="0" width="3986" height="230.445" filterUnits="userSpaceOnUse" color-interpolation-filters="sRGB">
<feFlood flood-opacity="0" result="BackgroundImageFix"/>
<feBlend mode="normal" in="SourceGraphic" in2="BackgroundImageFix" result="shape"/>
<feGaussianBlur stdDeviation="2.5" result="effect1_foregroundBlur_952_63694"/>
</filter>
<filter id="filter1_b_952_63694" x="1" y="1" width="3984" height="232" filterUnits="userSpaceOnUse" color-interpolation-filters="sRGB">
<feFlood flood-opacity="0" result="BackgroundImageFix"/>
<feGaussianBlur in="BackgroundImage" stdDeviation="2"/>
<feComposite in2="SourceAlpha" operator="in" result="effect1_backgroundBlur_952_63694"/>
<feBlend mode="normal" in="SourceGraphic" in2="effect1_backgroundBlur_952_63694" result="shape"/>
</filter>
<linearGradient id="paint0_linear_952_63694" x1="1957.36" y1="5.00001" x2="1993.84" y2="225.305" gradientUnits="userSpaceOnUse">
<stop stop-color="#AAD6FF"/>
<stop offset="1" stop-color="#AFECFF"/>
</linearGradient>
</defs>
</svg>
