<?xml version="1.0" encoding="UTF-8"?>
<svg width="117px" height="18px" viewBox="0 0 117 18" version="1.1" xmlns="http://www.w3.org/2000/svg" xmlns:xlink="http://www.w3.org/1999/xlink">
    <title>NIOPower</title>
    <g id="页面-2-圆角" stroke="none" stroke-width="1" fill="none" fill-rule="evenodd">
        <g id="svg已轮廓化" transform="translate(-139.000000, -984.000000)" fill="#000F16" fill-rule="nonzero">
            <g id="NIOPower" transform="translate(139.000000, 984.000000)">
                <path d="M51.1076712,10.8493151 L51.1076712,17.4180822 L49.8476712,17.4180822 L49.8476712,0.451232877 L55.0824658,0.451232877 C58.5345205,0.451232877 60.7290411,2.70493151 60.7290411,5.61452055 C60.7290411,8.82 58.110411,10.8493151 55.2032877,10.8493151 L51.1076712,10.8493151 Z M51.1076712,9.63616438 L54.559726,9.63616438 C58.1967123,9.63616438 59.3580822,7.57726027 59.3580822,5.66383562 C59.3580822,3.31150685 58.0019178,1.63972603 54.4882192,1.63972603 L51.1076712,1.63972603 L51.1076712,9.63616438 Z M68.3679452,4.52465753 C71.5906849,4.52465753 74.7789041,6.9460274 74.7789041,11.1156164 C74.7789041,15.2852055 71.5734247,17.7065753 68.3679452,17.7065753 C65.1624658,17.7065753 61.9569863,15.2852055 61.9569863,11.1156164 C61.9569863,6.9460274 65.1328767,4.52465753 68.3679452,4.52465753 M68.3679452,16.5205479 C70.9126027,16.5205479 73.5041096,14.4123288 73.5041096,11.1156164 C73.5041096,7.81890411 70.9126027,5.71068493 68.3679452,5.71068493 C66.966176,5.74171472 65.6342705,6.32884892 64.6657498,7.34269675 C63.6972291,8.35654458 63.1715851,9.71389394 63.2046575,11.1156164 C63.1715803,12.5169211 63.6968878,13.8739031 64.6648782,14.88768 C65.6328686,15.9014568 66.9641423,16.4888734 68.3654795,16.5205479 M82.1317808,17.4180822 L80.5315068,17.4180822 L76.120274,4.88712329 L77.4542466,4.88712329 L81.3550685,16.1556164 L84.9920548,4.88712329 L86.010411,4.88712329 L89.620274,16.1556164 L93.4742466,4.88712329 L94.8057534,4.88712329 L90.3969863,17.4180822 L88.7967123,17.4180822 L85.4753425,7.15068493 L82.1317808,17.4180822 Z M97.3972603,11.3424658 C97.5427397,14.4912329 99.8926027,16.5032877 102.461918,16.5032877 C104.001705,16.535333 105.483211,15.9146056 106.540274,14.7945205 L107.363836,15.5712329 C106.441644,16.6610959 104.769863,17.7016438 102.42,17.7016438 C98.5660274,17.7016438 96.1421918,14.7230137 96.1421918,11.1353425 C96.1421918,7.50082192 98.4452055,4.51972603 102.153699,4.51972603 C105.862192,4.51972603 107.945753,7.23205479 107.824932,11.330137 L97.3972603,11.3424658 Z M97.4712329,10.1539726 L106.520548,10.1539726 C106.446575,7.75479452 104.870959,5.69342466 102.15863,5.69342466 C99.7816438,5.69342466 97.9150685,7.46383562 97.4736986,10.1539726 M116.815068,5.88821918 C114.292603,5.62191781 112.766301,7.48849315 111.967397,9.47589041 L111.967397,17.4180822 L110.754247,17.4180822 L110.754247,4.88712329 L111.918082,4.88712329 L111.918082,7.62657534 C112.840274,5.71068493 114.487397,4.66767123 116.159178,4.66767123 C116.378093,4.66402779 116.597045,4.67225906 116.815068,4.69232877 L116.815068,5.88821918 Z M36.5252055,0 C31.5394521,0 27.4832877,4.00684932 27.4832877,8.93342466 C27.4832877,13.86 31.5394521,17.8668493 36.5252055,17.8668493 C41.5109589,17.8668493 45.5671233,13.86 45.5671233,8.93342466 C45.5671233,4.00684932 41.5109589,0 36.5252055,0 M36.5449315,13.6134247 C33.9575153,13.6134247 31.86,11.5159094 31.86,8.92849315 C31.86,6.34107693 33.9575153,4.24356164 36.5449315,4.24356164 C39.1323477,4.24356164 41.229863,6.34107693 41.229863,8.92849315 C41.229863,10.1710142 40.7362734,11.3626449 39.8576783,12.24124 C38.9790833,13.1198351 37.7874526,13.6134247 36.5449315,13.6134247 M20.6753425,1.87150685 L20.6753425,17.3736986 L24.9041096,17.3736986 L24.9041096,0.43890411 L22.1079452,0.43890411 C21.9025362,0.425716834 21.6963183,0.444010356 21.4964384,0.493150685 C21.3163488,0.547114502 21.1527076,0.64546884 21.0205479,0.779178082 C20.8866083,0.911704945 20.7889662,1.076423 20.7369863,1.25753425 C20.6843574,1.45769083 20.663555,1.66488276 20.6753425,1.87150685 M0,0.43890411 L0,17.3736986 L2.80849315,17.3736986 C3.01509275,17.3844138 3.22212,17.3636279 3.42246575,17.3120548 C3.78895225,17.2021011 4.0771076,16.91764 4.19178082,16.5526027 C4.243218,16.3530722 4.2640037,16.1468781 4.25342466,15.9410959 L4.25342466,6.96821918 L12.6246575,16.5205479 C12.8426698,16.8069118 13.1224977,17.0403827 13.4432877,17.2035616 C13.7773996,17.3369526 14.1372545,17.3934169 14.4961644,17.3687671 L17.5832877,17.3687671 L17.5832877,0.43890411 L14.7723288,0.43890411 C14.5669231,0.425985802 14.3607459,0.444275717 14.1608219,0.493150685 C13.9804887,0.549107482 13.8169346,0.649104269 13.6849315,0.784109589 C13.552551,0.915912006 13.4550952,1.07862066 13.4013699,1.25753425 C13.3497967,1.45788 13.3290108,1.66490725 13.339726,1.87150685 L13.339726,10.8493151 L4.95616438,1.29452055 C4.73883939,1.0075003 4.45884688,0.773892092 4.13753425,0.611506849 C3.80374266,0.476951919 3.44361898,0.420445394 3.08465753,0.44630137 L0,0.43890411 Z" id="形状"></path>
            </g>
        </g>
    </g>
</svg>