<?xml version="1.0" encoding="UTF-8"?>
<svg width="24px" height="24px" viewBox="0 0 24 24" version="1.1" xmlns="http://www.w3.org/2000/svg" xmlns:xlink="http://www.w3.org/1999/xlink">
    <title>回到定位</title>
    <g id="页面-2-圆角" stroke="none" stroke-width="1" fill="none" fill-rule="evenodd">
        <g id="svg已轮廓化" transform="translate(-251.000000, -784.000000)" fill="#696D7F">
            <g id="编组-13" transform="translate(251.000000, 784.000000)">
                <g id="定位" transform="translate(1.000000, 1.000000)">
                    <g transform="translate(0.411765, 0.411765)">
                        <g id="Group-17" transform="translate(1.764706, 1.764706)">
                            <path d="M8.82352941,0 C13.6966301,0 17.6470588,3.95042868 17.6470588,8.82352941 C17.6470588,13.6966301 13.6966301,17.6470588 8.82352941,17.6470588 C3.95042868,17.6470588 0,13.6966301 0,8.82352941 C0,3.95042868 3.95042868,0 8.82352941,0 Z M8.82352941,1.5 C4.7788558,1.5 1.5,4.7788558 1.5,8.82352941 C1.5,12.868203 4.7788558,16.1470588 8.82352941,16.1470588 C12.868203,16.1470588 16.1470588,12.868203 16.1470588,8.82352941 C16.1470588,4.7788558 12.868203,1.5 8.82352941,1.5 Z" id="Oval-2" fill-rule="nonzero"></path>
                            <circle id="Oval-2" cx="8.82352941" cy="8.82352941" r="2.64705882"></circle>
                        </g>
                        <polygon id="Path-2" fill-rule="nonzero" points="11.3382353 0.441176471 11.3382353 4.41176471 9.83823529 4.41176471 9.83823529 0.441176471"></polygon>
                        <polygon id="Path-2-Copy" fill-rule="nonzero" points="11.3382353 16.7647059 11.3382353 20.7352941 9.83823529 20.7352941 9.83823529 16.7647059"></polygon>
                        <polygon id="Path-7" fill-rule="nonzero" points="20.7352941 9.83823529 20.7352941 11.3382353 16.7647059 11.3382353 16.7647059 9.83823529"></polygon>
                        <polygon id="Path-7备份" fill-rule="nonzero" points="4.41176471 9.83823529 4.41176471 11.3382353 0.441176471 11.3382353 0.441176471 9.83823529"></polygon>
                    </g>
                </g>
            </g>
        </g>
    </g>
</svg>