<?xml version="1.0" encoding="UTF-8"?>
<svg width="24px" height="24px" viewBox="0 0 24 24" version="1.1" xmlns="http://www.w3.org/2000/svg" xmlns:xlink="http://www.w3.org/1999/xlink">
    <title>搜索</title>
    <g id="页面-2-圆角" stroke="none" stroke-width="1" fill="none" fill-rule="evenodd">
        <g id="svg已轮廓化" transform="translate(-180.000000, -665.000000)">
            <g id="icon_search_24pt" transform="translate(180.000000, 665.000000)">
                <rect id="矩形" x="0" y="0" width="24" height="24"></rect>
                <g id="搜索" transform="translate(3.000000, 3.000000)" fill="#696D7F" fill-rule="nonzero">
                    <g id="Group-9" transform="translate(0.666667, 0.666667)">
                        <path d="M7.5,-0.75 C2.94365081,-0.75 -0.75,2.94365081 -0.75,7.5 C-0.75,12.0563492 2.94365081,15.75 7.5,15.75 C12.0563492,15.75 15.75,12.0563492 15.75,7.5 C15.75,2.94365081 12.0563492,-0.75 7.5,-0.75 Z M7.5,0.75 C11.2279221,0.75 14.25,3.77207794 14.25,7.5 C14.25,11.2279221 11.2279221,14.25 7.5,14.25 C3.77207794,14.25 0.75,11.2279221 0.75,7.5 C0.75,3.77207794 3.77207794,0.75 7.5,0.75 Z" id="Oval"></path>
                        <polygon id="Stroke-3" points="13.4469968 12.3863366 17.6136634 16.5530032 16.5530032 17.6136634 12.3863366 13.4469968"></polygon>
                    </g>
                </g>
            </g>
        </g>
    </g>
</svg>