<?xml version="1.0" encoding="UTF-8"?>
<svg width="24px" height="24px" viewBox="0 0 24 24" version="1.1" xmlns="http://www.w3.org/2000/svg" xmlns:xlink="http://www.w3.org/1999/xlink">
    <title>分享</title>
    <g id="页面-2-圆角" stroke="none" stroke-width="1" fill="none" fill-rule="evenodd">
        <g id="svg已轮廓化" transform="translate(-182.000000, -784.000000)" fill="#696D7F" fill-rule="nonzero">
            <g id="编组-12" transform="translate(182.000000, 784.000000)">
                <g id="Group-29" transform="translate(4.000000, 3.000000)">
                    <path d="M0.75,0 L0.75,15 C0.75,15.6472087 1.24187466,16.1795339 1.87219476,16.2435464 L2,16.25 L17,16.25 L17,17.75 L2,17.75 C0.537468162,17.75 -0.658404279,16.6082954 -0.744981206,15.1675223 L-0.75,15 L-0.75,0 L0.75,0 Z" id="Stroke-1"></path>
                    <path d="M14.5,-0.25 C15.9625318,-0.25 17.1584043,0.891704595 17.2449812,2.33247767 L17.25,2.5 L17.25,10.5 L15.75,10.5 L15.75,2.5 C15.75,1.85279131 15.2581253,1.3204661 14.6278052,1.25645361 L14.5,1.25 L6.5,1.25 L6.5,-0.25 L14.5,-0.25 Z" id="Stroke-3"></path>
                    <polygon id="Stroke-5" points="15.6952961 0.289666026 16.7534596 1.35281702 7.02908175 11.0315755 5.97091825 9.96842451"></polygon>
                </g>
            </g>
        </g>
    </g>
</svg>