<?xml version="1.0" encoding="UTF-8"?>
<svg width="48px" height="48px" viewBox="0 0 48 48" version="1.1" xmlns="http://www.w3.org/2000/svg" xmlns:xlink="http://www.w3.org/1999/xlink">
    <title>站-未选中</title>
    <defs>
        <linearGradient x1="50.0068371%" y1="-0.71524363%" x2="50.0068371%" y2="105.453733%" id="linearGradient-1">
            <stop stop-color="#AAB9BC" offset="0%"></stop>
            <stop stop-color="#DAE7E8" offset="100%"></stop>
        </linearGradient>
        <linearGradient x1="49.9844672%" y1="183.138275%" x2="49.9844672%" y2="43.9098396%" id="linearGradient-2">
            <stop stop-color="#C1CFD3" offset="0%"></stop>
            <stop stop-color="#1B353F" offset="100%"></stop>
        </linearGradient>
    </defs>
    <g id="页面-2-圆角" stroke="none" stroke-width="1" fill="none" fill-rule="evenodd">
        <g id="svg已轮廓化" transform="translate(-498.000000, -90.000000)">
            <g id="编组-17" transform="translate(498.000000, 90.000000)">
                <rect id="矩形" x="0" y="0" width="48" height="48"></rect>
                <g id="站" transform="translate(2.000000, 5.000000)" fill-rule="nonzero">
                    <g id="资源-5">
                        <path d="M2.78136986,29.2221918 C1.3439164,29.2221918 0.178630137,28.0569055 0.178630137,26.6194521 L0.178630137,4.48054795 C0.178630137,2.40977122 1.85580061,0.73026935 3.92657534,0.72739726 L39.6986301,0.72739726 C40.3126327,0.72739726 40.917073,0.879504363 41.4580822,1.16986301 C41.7233068,1.31238813 41.9698436,1.48723695 42.1920548,1.69041096 L42.3534247,1.83616438 C43.0596094,2.53875704 43.4551509,3.49480535 43.4518022,4.4909589 L43.4518022,26.6194521 C43.4518022,28.0569055 42.2864946,29.2221918 40.8490411,29.2221918 L2.78136986,29.2221918 Z" id="路径" fill="#FFFFFF"></path>
                        <path d="M3.92657534,3.33013699 L39.6986301,3.33013699 C40.3339846,3.33013699 40.8490411,3.84519352 40.8490411,4.48054795 L40.8490411,26.6194521 L2.78136986,26.6194521 L2.78136986,4.48054795 C2.78136986,3.84722084 3.29325472,3.33300272 3.92657534,3.33013699 Z" id="路径" fill="url(#linearGradient-1)"></path>
                        <path d="M23.0410959,3.33013699 L39.6986301,3.33013699 C40.3339846,3.33013699 40.8490411,3.84519352 40.8490411,4.48054795 L40.8490411,26.6194521 L23.0410959,26.6194521 L23.0410959,3.33013699 Z" id="路径" fill="#1B353F"></path>
                        <rect id="矩形" fill="#1B353F" x="2.78136986" y="25.5523288" width="20.7282192" height="1.06712329"></rect>
                        <polygon id="路径" fill="url(#linearGradient-2)" points="23.0619178 13.5432877 23.0619178 25.5523288 39.8183562 25.5523288 35.6591781 13.5432877"></polygon>
                        <rect id="矩形" fill="#FFFFFF" opacity="0.3" style="mix-blend-mode: overlay;" x="12.7290411" y="3.33013699" width="1" height="22.2221918"></rect>
                        <path d="M39.6986301,3.33013699 L23.0410959,3.33013699 L23.0410959,7.87452055 L39.7975342,7.87452055 L39.7975342,26.6142466 L40.8386301,26.6142466 L40.8386301,4.48054795 C40.8386301,3.84923714 40.3299151,3.33585021 39.6986301,3.33013699 Z" id="路径" fill="#1B353F"></path>
                        <path d="M34.550411,14.9279452 L32.4682192,20.1334247 L32.4682192,20.1334247 C31.8517419,19.8874248 31.5511804,19.1884447 31.7967123,18.5717808 L33.1084932,15.2819178 L29.8082192,15.2819178 C29.6198851,15.2708656 29.4480274,15.1709207 29.3452831,15.0126946 C29.2425389,14.8544685 29.2211514,14.6568157 29.2876712,14.480274 L31.369863,9.27479452 C31.9842981,9.52284788 32.2822705,10.2212207 32.0361644,10.8364384 L30.7243836,14.1263014 L33.9726027,14.1263014 C34.1703089,14.1260751 34.3553764,14.2234791 34.4671233,14.3865753 C34.5782616,14.5439798 34.6090976,14.7444139 34.550411,14.9279452 L34.550411,14.9279452 Z" id="路径" fill="#FFD655"></path>
                    </g>
                </g>
            </g>
        </g>
    </g>
</svg>