<?xml version="1.0" encoding="UTF-8"?>
<svg width="48px" height="48px" viewBox="0 0 48 48" version="1.1" xmlns="http://www.w3.org/2000/svg" xmlns:xlink="http://www.w3.org/1999/xlink">
    <title>超充桩-未选中</title>
    <defs>
        <linearGradient x1="50%" y1="101.080565%" x2="50%" y2="8.93057924%" id="linearGradient-1">
            <stop stop-color="#14272D" offset="0%"></stop>
            <stop stop-color="#21383D" offset="100%"></stop>
        </linearGradient>
        <linearGradient x1="49.8668442%" y1="101.073671%" x2="49.8668442%" y2="8.92631463%" id="linearGradient-2">
            <stop stop-color="#AAB9BC" offset="0%"></stop>
            <stop stop-color="#DAE7E8" offset="100%"></stop>
        </linearGradient>
        <linearGradient x1="50.0199853%" y1="-64.7112763%" x2="50.0199853%" y2="130.19346%" id="linearGradient-3">
            <stop stop-color="#14272D" offset="0%"></stop>
            <stop stop-color="#21383D" offset="100%"></stop>
        </linearGradient>
    </defs>
    <g id="页面-2-圆角" stroke="none" stroke-width="1" fill="none" fill-rule="evenodd">
        <g id="svg已轮廓化" transform="translate(-334.000000, -88.000000)">
            <g id="编组-16" transform="translate(334.000000, 88.000000)">
                <rect id="矩形" x="0" y="0" width="48" height="48"></rect>
                <g id="资源-4" transform="translate(12.000000, 0.000000)">
                    <path d="M4.39776224,43.1443357 C3.33681825,43.1443357 2.33286609,42.6642062 1.6669568,41.8382722 C1.00104752,41.0123382 0.744741485,39.9293879 0.96979021,38.8925874 L1.62881119,35.8366434 C1.9524414,34.3650099 3.13179935,33.2339175 4.61566434,32.972028 L4.61566434,5.06993007 C4.62170756,4.76748221 4.65911055,4.46647719 4.72727273,4.17174825 C5.16460354,2.06773323 7.01605628,0.55774602 9.16503497,0.552447552 L15.2290909,0.552447552 C16.6967007,0.552447552 17.8864336,1.74218039 17.8864336,3.20979021 L17.8864336,12.8772028 C21.1124476,18.7499301 25.5874126,28.7734266 22.3613986,34.4282517 C21.6217431,35.7419978 20.4796915,36.7834446 19.1034965,37.3991608 L19.4223776,38.8925874 C19.6474263,39.9293879 19.3911203,41.0123382 18.725211,41.8382722 C18.0593017,42.6642062 17.0553496,43.1443357 15.9944056,43.1443357 L4.39776224,43.1443357 Z" id="路径" fill="#FFFFFF" fill-rule="nonzero"></path>
                    <path d="M9.38293706,3.20978232 L15.4629371,3.20978232 L15.4629371,35.5177622 C15.4629371,36.1458992 14.9537314,36.6551049 14.3255944,36.6551049 L8.32531469,36.6551049 C7.87035564,36.6551049 7.50153846,36.2862877 7.50153846,35.8313287 L7.50153846,5.06993007 C7.51030487,4.03795402 8.35092803,3.20682943 9.38293706,3.20978232 Z" id="路径" fill="url(#linearGradient-1)" fill-rule="nonzero"></path>
                    <path d="M14.6338462,13.0791608 C14.6338462,13.0791608 27.6707692,35.0925874 15.1653147,35.0925874" id="路径" stroke="#172C31" stroke-width="0.951328671"></path>
                    <path d="M7.50153846,5.06993007 L7.50153846,21.8643357 L12.5398601,27.8274126 C12.8748721,28.225908 13.3691843,28.455549 13.8897902,28.4545487 L15.4841958,28.4545487 L15.4841958,3.20979021 L9.38293706,3.20979021 C8.35211506,3.20979021 7.51318617,4.03917387 7.50153846,5.06993007 Z" id="路径" fill="url(#linearGradient-2)" fill-rule="nonzero"></path>
                    <path d="M5.48195804,35.5762238 L15.3566434,35.5762238 C15.8697877,35.5658753 16.317035,35.9236732 16.4195804,36.4265734 L17.0573427,39.4559441 C17.1100552,39.7076487 17.0467652,39.969714 16.8849871,40.1696181 C16.723209,40.3695222 16.4801003,40.4860642 16.2229371,40.486993 L4.63160839,40.486993 C4.37444512,40.4860642 4.13133644,40.3695222 3.96955836,40.1696181 C3.80778027,39.969714 3.74449029,39.7076487 3.7972028,39.4559441 L4.45622378,36.4265734 C4.55601579,35.9374147 4.98277872,35.5836216 5.48195804,35.5762238 Z" id="路径" fill="url(#linearGradient-3)" fill-rule="nonzero"></path>
                </g>
            </g>
        </g>
    </g>
</svg>