<?xml version="1.0" encoding="UTF-8"?>
<svg width="48px" height="48px" viewBox="0 0 48 48" version="1.1" xmlns="http://www.w3.org/2000/svg" xmlns:xlink="http://www.w3.org/1999/xlink">
    <title>目的地桩-未选中</title>
    <defs>
        <linearGradient x1="50%" y1="154.790419%" x2="50%" y2="74.3712575%" id="linearGradient-1">
            <stop stop-color="#C1CFD3" offset="0%"></stop>
            <stop stop-color="#1B353F" offset="100%"></stop>
        </linearGradient>
        <linearGradient x1="49.9807173%" y1="101.06319%" x2="49.9807173%" y2="8.92678034%" id="linearGradient-2">
            <stop stop-color="#14272D" offset="0%"></stop>
            <stop stop-color="#21383D" offset="100%"></stop>
        </linearGradient>
        <linearGradient x1="50.0001039%" y1="217.922668%" x2="50.0001039%" y2="19.1816486%" id="linearGradient-3">
            <stop stop-color="#14272D" offset="0%"></stop>
            <stop stop-color="#21383D" offset="100%"></stop>
        </linearGradient>
        <linearGradient x1="49.9838449%" y1="101.071169%" x2="49.9838449%" y2="8.93246187%" id="linearGradient-4">
            <stop stop-color="#AAB9BC" offset="0%"></stop>
            <stop stop-color="#DAE7E8" offset="100%"></stop>
        </linearGradient>
        <linearGradient x1="49.9999%" y1="133.184279%" x2="49.9999%" y2="78.8420805%" id="linearGradient-5">
            <stop stop-color="#AAB9BC" offset="0%"></stop>
            <stop stop-color="#DAE7E8" offset="100%"></stop>
        </linearGradient>
    </defs>
    <g id="页面-2-圆角" stroke="none" stroke-width="1" fill="none" fill-rule="evenodd">
        <g id="svg已轮廓化" transform="translate(-158.000000, -89.000000)">
            <g id="编组-14" transform="translate(151.000000, 76.000000)">
                <rect id="矩形" x="7" y="13" width="48" height="48"></rect>
                <g id="目的地桩" fill-rule="nonzero">
                    <g id="资源-3">
                        <path d="M24.1036111,55.4430556 C23.4964091,55.4409548 22.9195119,55.1775051 22.5202778,54.72 C22.1380992,54.2614725 21.9606846,53.6662752 22.0294444,53.0733333 C22.0294444,53.0416667 22.0294444,53.01 22.0294444,52.9836111 L22.2880556,51.1891667 C22.3568032,50.7009446 22.5894298,50.2505796 22.9477778,49.9119444 C18.4194444,47.0619444 17.7702778,41.5730556 17.7702778,36.8916667 C17.7702778,28.5527778 19.7863889,23.4755556 20.8419444,21.3961111 C20.9109225,19.6748941 21.7475843,18.0751657 23.1219444,17.0366667 C24.0936993,15.6463446 25.6848572,14.8202043 27.3811111,14.8252545 L33.7777778,14.8252545 C35.4740317,14.8202043 37.0651896,15.6463446 38.0369444,17.0366667 C39.4841946,18.123661 40.334855,19.8288929 40.3327778,21.6388889 L40.3327778,22.6944444 C43.074282,26.1783814 44.561728,30.4845378 44.5550227,34.9177778 C44.5550227,42.6761111 41.5783333,47.4947222 38.19,49.8908333 C38.5635072,50.2336601 38.8092027,50.6934083 38.8866667,51.1944444 L39.14,52.9888889 C39.142866,53.0222534 39.142866,53.0558022 39.14,53.0891667 C39.2089032,53.676385 39.033324,54.266102 38.6544444,54.72 C38.2561828,55.1794669 37.6791493,55.4449023 37.0711111,55.4483333 L24.1036111,55.4430556 Z M40.3327778,35.3611111 C40.3327778,35.2027778 40.3327778,35.055 40.3327778,34.9019444 C40.3327778,34.7488889 40.3327778,34.6433333 40.3327778,34.5113889 L40.3327778,35.3611111 Z" id="形状" fill="#FFFFFF"></path>
                        <path d="M25.9825,42.4333333 L35.1869444,42.4333333 L35.1869444,50.7986111 C35.1869444,51.0463722 34.9860944,51.2472222 34.7383333,51.2472222 L26.4363889,51.2472222 C26.1886278,51.2472222 25.9877778,51.0463722 25.9877778,50.7986111 L25.9877778,42.4333333 L25.9825,42.4333333 Z" id="路径" fill="url(#linearGradient-1)"></path>
                        <path d="M31.5980556,50.3077778 C22.7841667,50.3077778 19.3536111,46.55 19.3536111,36.8916667 C19.3536111,26.6475 22.5202778,21.5597222 22.6786111,21.3433333 L23.5547222,21.9080556 C23.5230556,21.9608333 20.3880556,26.9852778 20.3880556,36.8916667 C20.3880556,47.1938889 24.6736111,49.2627778 31.5875,49.2627778 C38.7177778,49.2627778 41.9108333,42.0480556 41.9108333,34.8966667 C41.9108333,28.4577778 38.1477778,24.3938889 37.8522222,23.8133333 L38.7494444,23.2222222 C41.4873748,26.4911491 42.9827318,30.6220727 42.9717276,34.8861111 C42.9663889,42.5705556 39.4513889,50.3077778 31.5980556,50.3077778 Z" id="路径" fill="#172C31"></path>
                        <rect id="矩形" fill="url(#linearGradient-2)" x="23.7447222" y="16.4086111" width="13.6852778" height="26.3097222" rx="3.64166667"></rect>
                        <path d="M37.5725,53.2052778 L37.5725,53.2052778 L37.3191667,51.4161111 C37.2677666,51.1120176 37.0047947,50.88916 36.6963889,50.8883271 L24.4783333,50.8883271 C24.1691238,50.8869655 23.9049226,51.1108648 23.8555556,51.4161111 L23.5969444,53.2052778 L23.5969444,53.2052778 C23.5572637,53.3654772 23.5948068,53.5350155 23.6984115,53.6634854 C23.8020162,53.7919552 23.9597526,53.8645635 24.1247222,53.8597222 L37.0711111,53.8597222 C37.231458,53.8563992 37.3815943,53.7803452 37.4791322,53.6530325 C37.5766701,53.5257198 37.6110259,53.3609631 37.5725,53.2052778 Z" id="路径" fill="url(#linearGradient-3)"></path>
                        <rect id="矩形" fill="url(#linearGradient-4)" x="22.42" y="17.4483333" width="16.3347222" height="29.07" rx="4.18"></rect>
                        <path d="M33.4822222,41.9794444 L27.6766667,41.9794444 C26.5410383,41.9270712 25.6395762,41.0048594 25.6130556,39.8683333 L24.7738889,22.61 C24.6894444,20.9422222 25.7027778,19.5541667 27.0275,19.5541667 L34.1419444,19.5541667 C35.4719444,19.5541667 36.48,20.9422222 36.3955556,22.61 L35.5458333,39.8525 C35.5275427,40.995177 34.6238246,41.9266307 33.4822222,41.9794444 Z" id="路径" fill="url(#linearGradient-5)"></path>
                    </g>
                </g>
            </g>
        </g>
    </g>
</svg>