<?xml version="1.0" encoding="UTF-8"?>
<svg width="100px" height="100px" viewBox="0 0 100 100" version="1.1" xmlns="http://www.w3.org/2000/svg" xmlns:xlink="http://www.w3.org/1999/xlink">
    <title>目的地桩-选中</title>
    <defs>
        <linearGradient x1="50%" y1="95.79%" x2="50%" y2="-39.07%" id="linearGradient-1">
            <stop stop-color="#FFFFFF" offset="0%"></stop>
            <stop stop-color="#96C1E5" offset="100%"></stop>
        </linearGradient>
        <circle id="path-2" cx="50" cy="50" r="50"></circle>
        <linearGradient x1="50%" y1="154.774775%" x2="50%" y2="74.4144144%" id="linearGradient-4">
            <stop stop-color="#C1CFD3" offset="0%"></stop>
            <stop stop-color="#1B353F" offset="100%"></stop>
        </linearGradient>
        <linearGradient x1="49.9854946%" y1="101.071536%" x2="49.9854946%" y2="8.93450045%" id="linearGradient-5">
            <stop stop-color="#14272D" offset="0%"></stop>
            <stop stop-color="#21383D" offset="100%"></stop>
        </linearGradient>
        <linearGradient x1="50%" y1="217.419867%" x2="50%" y2="19.6808825%" id="linearGradient-6">
            <stop stop-color="#14272D" offset="0%"></stop>
            <stop stop-color="#21383D" offset="100%"></stop>
        </linearGradient>
        <linearGradient x1="50.0121566%" y1="101.065283%" x2="50.0121566%" y2="8.9319858%" id="linearGradient-7">
            <stop stop-color="#AAB9BC" offset="0%"></stop>
            <stop stop-color="#DAE7E8" offset="100%"></stop>
        </linearGradient>
        <linearGradient x1="49.9982086%" y1="133.156311%" x2="49.9982086%" y2="78.8458134%" id="linearGradient-8">
            <stop stop-color="#AAB9BC" offset="0%"></stop>
            <stop stop-color="#DAE7E8" offset="100%"></stop>
        </linearGradient>
    </defs>
    <g id="页面-2-圆角" stroke="none" stroke-width="1" fill="none" fill-rule="evenodd">
        <g id="svg已轮廓化" transform="translate(-133.000000, -181.000000)">
            <g id="资源-9" transform="translate(133.000000, 181.000000)">
                <mask id="mask-3" fill="white">
                    <use xlink:href="#path-2"></use>
                </mask>
                <use id="椭圆形" fill="url(#linearGradient-1)" fill-rule="nonzero" xlink:href="#path-2"></use>
                <path d="M38.45,71.13 L61.63,71.13 L61.63,92.2 C61.63,92.8240818 61.1240818,93.33 60.5,93.33 L39.58,93.33 C38.9559182,93.33 38.45,92.8240818 38.45,92.2 L38.45,71.13 L38.45,71.13 Z" id="路径" fill="url(#linearGradient-4)" fill-rule="nonzero" mask="url(#mask-3)"></path>
                <path d="M52.59,91 C30.4,91 21.75,81.5 21.75,57.18 C21.75,31.38 29.75,18.56 30.12,18.03 L32.34,19.45 C32.26,19.57 24.34,32.23 24.34,57.18 C24.34,83.13 35.14,88.34 52.55,88.34 C70.55,88.34 78.55,70.17 78.55,52.16 C78.55,35.93 69.06,25.71 68.32,24.16 L70.56,22.76 C77.4691068,30.9969919 81.2478955,41.4090246 81.2300633,52.16 C81.2300633,71.48 72.37,91 52.59,91 Z" id="路径" fill="#172C31" fill-rule="nonzero" mask="url(#mask-3)"></path>
                <rect id="矩形" fill="url(#linearGradient-5)" fill-rule="nonzero" mask="url(#mask-3)" x="32.81" y="5.59" width="34.47" height="66.26" rx="9.17"></rect>
                <path d="M67.64,98.26 L67.64,98.26 L67,93.76 C66.8946069,92.9740579 66.2229746,92.3879838 65.43,92.3899948 L34.66,92.3899948 C33.8670254,92.3879838 33.1953931,92.9740579 33.09,93.76 L32.44,98.26 L32.44,98.26 C32.3340263,98.6543072 32.4179633,99.0754791 32.6670027,99.3990343 C32.9160422,99.7225894 33.3017032,99.9115253 33.71,99.9100092 L66.37,99.9100092 C66.7782968,99.9115253 67.1639578,99.7225894 67.4129973,99.3990343 C67.6620367,99.0754791 67.7459737,98.6543072 67.64,98.26 Z" id="路径" fill="url(#linearGradient-6)" fill-rule="nonzero" mask="url(#mask-3)"></path>
                <rect id="矩形" fill="url(#linearGradient-7)" fill-rule="nonzero" mask="url(#mask-3)" x="29.47" y="8.21" width="41.13" height="73.22" rx="10.53"></rect>
                <path d="M57.34,70 L42.75,70 C39.8730316,69.8636177 37.5946891,67.51968 37.54,64.64 L35.4,21.21 C35.2,17.01 37.74,13.51 41.09,13.51 L59,13.51 C62.34,13.51 64.89,17.01 64.68,21.21 L62.54,64.63 C62.4908337,67.5098925 60.2168219,69.858247 57.34,70 L57.34,70 Z" id="路径" fill="url(#linearGradient-8)" fill-rule="nonzero" mask="url(#mask-3)"></path>
            </g>
        </g>
    </g>
</svg>