<?xml version="1.0" encoding="UTF-8"?>
<svg width="48px" height="48px" viewBox="0 0 48 48" version="1.1" xmlns="http://www.w3.org/2000/svg" xmlns:xlink="http://www.w3.org/1999/xlink">
    <title>会客点-未选中</title>
    <defs>
        <linearGradient x1="50%" y1="130.753836%" x2="50%" y2="59.5063376%" id="linearGradient-1">
            <stop stop-color="#0092A5" offset="0%"></stop>
            <stop stop-color="#00BEBE" offset="100%"></stop>
        </linearGradient>
        <linearGradient x1="49.819928%" y1="100.731146%" x2="49.819928%" y2="51.9844665%" id="linearGradient-2">
            <stop stop-color="#FFEFE1" offset="0%"></stop>
            <stop stop-color="#FFD2B0" offset="100%"></stop>
        </linearGradient>
        <linearGradient x1="50%" y1="40.4605104%" x2="50%" y2="14.8684152%" id="linearGradient-3">
            <stop stop-color="#FFEFE1" offset="0%"></stop>
            <stop stop-color="#FFD2B0" offset="100%"></stop>
        </linearGradient>
        <linearGradient x1="50%" y1="32.3707818%" x2="50%" y2="128.466244%" id="linearGradient-4">
            <stop stop-color="#13D6D1" offset="0%"></stop>
            <stop stop-color="#5DF4EC" offset="100%"></stop>
        </linearGradient>
        <linearGradient x1="50%" y1="131.565657%" x2="50%" y2="44.5707071%" id="linearGradient-5">
            <stop stop-color="#0092A5" offset="0%"></stop>
            <stop stop-color="#00BEBE" offset="100%"></stop>
        </linearGradient>
        <linearGradient x1="49.8798077%" y1="100.731146%" x2="49.8798077%" y2="51.9844665%" id="linearGradient-6">
            <stop stop-color="#FFEFE1" offset="0%"></stop>
            <stop stop-color="#FFD2B0" offset="100%"></stop>
        </linearGradient>
        <linearGradient x1="50.0333556%" y1="40.4958544%" x2="50.0333556%" y2="14.8209318%" id="linearGradient-7">
            <stop stop-color="#FFEFE1" offset="0%"></stop>
            <stop stop-color="#FFD2B0" offset="100%"></stop>
        </linearGradient>
    </defs>
    <g id="页面-2-圆角" stroke="none" stroke-width="1" fill="none" fill-rule="evenodd">
        <g id="svg已轮廓化" transform="translate(-668.000000, -90.000000)">
            <g id="会客点" transform="translate(668.000000, 90.000000)">
                <g transform="translate(4.000000, 3.000000)" fill-rule="nonzero" id="资源-7">
                    <g>
                        <path d="M3.04081633,37.3153741 C1.76342303,37.3153741 0.727891156,36.2798423 0.727891156,35.002449 L0.727891156,19.6955102 C0.763442625,17.8490546 1.87092761,16.1923438 3.56353741,15.4536054 L6.7414966,14.2 C6.42134242,13.7248463 6.15744373,13.2141247 5.95510204,12.6780952 C5.07069538,11.7843447 4.59952311,10.5619797 4.6552381,9.30585034 C4.64565465,8.62163492 4.86551098,7.9539231 5.27972789,7.4092517 L5.27972789,6.42857143 C5.2751245,6.34382664 5.2751245,6.25889445 5.27972789,6.17414966 C5.64328637,3.05667817 8.28425821,0.705797425 11.4228571,0.705797425 C14.5614561,0.705797425 17.2024279,3.05667817 17.5659864,6.17414966 C17.5705898,6.25889445 17.5705898,6.34382664 17.5659864,6.42857143 L17.5659864,7.4 C17.9802033,7.9446714 18.2000596,8.61238322 18.1904762,9.29659864 C18.2561389,10.5517789 17.7950548,11.7774242 16.9183673,12.6780952 C16.7141402,13.2132831 16.4503497,13.7237953 16.1319728,14.2 L19.2960544,15.4536054 C19.4755436,15.5310609 19.6487605,15.6223091 19.8141497,15.7265306 C19.9816267,15.6231505 20.1563171,15.5319405 20.3368707,15.4536054 L23.5009524,14.2 C23.1825755,13.7237953 22.918785,13.2132831 22.7145578,12.6780952 C21.8301512,11.7843447 21.3589789,10.5619797 21.4146939,9.30585034 C21.4051104,8.62163492 21.6249668,7.9539231 22.0391837,7.4092517 L22.0391837,6.42857143 C22.0345803,6.34382664 22.0345803,6.25889445 22.0391837,6.17414966 C22.4027422,3.05667817 25.043714,0.705797425 28.1823129,0.705797425 C31.3209119,0.705797425 33.9618837,3.05667817 34.3254422,6.17414966 C34.3300456,6.25889445 34.3300456,6.34382664 34.3254422,6.42857143 L34.3254422,7.4 C34.7396591,7.9446714 34.9595154,8.61238322 34.949932,9.29659864 C35.005647,10.552728 34.5344747,11.775093 33.650068,12.6688435 C33.4477263,13.204873 33.1838276,13.7155946 32.8636735,14.1907483 L36.0277551,15.4443537 C37.7203649,16.1830921 38.8278499,17.8398029 38.8634014,19.6862585 L38.8634014,34.9931973 C38.8634014,36.2705906 37.8278695,37.3061224 36.5504762,37.3061224 L3.04081633,37.3153741 Z" id="路径" fill="#FFFFFF"></path>
                        <path d="M35.1395918,17.5768707 L30.8606803,15.8838095 L28.1961905,15.4998639 L25.5317007,15.8838095 L21.2527891,17.5768707 C20.4139134,17.957456 19.858493,18.7754062 19.8141497,19.6955102 L19.8141497,22.4340136 L36.5782313,22.4340136 L36.5782313,19.6955102 C36.533888,18.7754062 35.9784676,17.957456 35.1395918,17.5768707 Z" id="路径" fill="url(#linearGradient-1)"></path>
                        <polygon id="路径" fill="#FFEFE1" points="30.1159184 15.4998639 28.1961905 17.3733333 26.2764626 15.4998639 26.2764626 12.6364626 30.1159184 12.6364626"></polygon>
                        <path d="M26.2764626,14.2092517 C26.2764626,14.2092517 26.4106122,14.3480272 26.5863946,14.5238095 C27.0114569,14.9612905 27.5954687,15.2081361 28.2054422,15.2081361 C28.8154157,15.2081361 29.3994274,14.9612905 29.8244898,14.5238095 L30.1297959,14.2092517 L30.1297959,12.6364626 L26.2903401,12.6364626 L26.2764626,14.2092517 Z" id="路径" fill="url(#linearGradient-2)"></path>
                        <path d="M24.3521088,8.66748299 C24.3521088,8.66748299 23.727619,8.52870748 23.727619,9.30585034 C23.727619,10.0829932 24.0097959,11.1561905 24.7268027,11.1561905 L24.7268027,8.65823129 L24.3521088,8.66748299 Z" id="路径" fill="#FFEFE1"></path>
                        <path d="M32.0402721,8.66748299 C32.0402721,8.66748299 32.6647619,8.52870748 32.6647619,9.30585034 C32.6647619,10.0829932 32.382585,11.1561905 31.6655782,11.1561905 L31.6655782,8.65823129 L32.0402721,8.66748299 Z" id="路径" fill="#FFEFE1"></path>
                        <path d="M24.7268027,9.4492517 L24.3521088,8.66748299 L24.3521088,6.96517007 L25.1014966,6.96517007 L25.1014966,8.20489796 C24.9053379,8.59479742 24.7785475,9.01586701 24.7268027,9.4492517 Z" id="路径" fill="#564444"></path>
                        <path d="M31.6655782,9.4492517 L32.0402721,8.66748299 L32.0402721,6.96517007 L31.2908844,6.96517007 L31.2908844,8.20489796 C31.487043,8.59479742 31.6138335,9.01586701 31.6655782,9.4492517 L31.6655782,9.4492517 Z" id="路径" fill="#564444"></path>
                        <path d="M28.1961905,3.02394558 C24.7268027,3.02394558 24.3521088,6.43782313 24.3521088,6.43782313 L24.3521088,7.41387755 L32.0402721,7.41387755 L32.0402721,6.42857143 C32.0402721,6.42857143 31.6655782,3.02394558 28.1961905,3.02394558 Z" id="路径" fill="#175C77"></path>
                        <path d="M28.1961905,7.41387755 L24.7268027,7.41387755 L24.7268027,11.1515646 C24.7268027,12.0767347 25.8,13.6078912 26.4522449,14.1028571 C26.7505527,14.3245183 27.1121635,14.4445147 27.4838095,14.4451728 L28.9085714,14.4451728 C29.2804313,14.4458377 29.6424478,14.3257067 29.9401361,14.1028571 C30.592381,13.6078912 31.6655782,12.0952381 31.6655782,11.1515646 L31.6655782,7.41387755 L28.1961905,7.41387755 Z" id="路径" fill="url(#linearGradient-3)"></path>
                        <path d="M28.1961905,6.23891156 C24.9257143,6.23891156 24.3521088,7.39537415 24.3521088,7.39537415 C24.3521088,9.01904762 26.8454422,8.96816327 26.8454422,8.96816327 L29.5469388,8.96816327 C29.5469388,8.96816327 32.0402721,9.01904762 32.0402721,7.39537415 C32.0402721,7.39537415 31.4666667,6.23891156 28.1961905,6.23891156 Z" id="路径" fill="url(#linearGradient-4)"></path>
                        <polygon id="路径" fill="#03BABC" opacity="0.7" style="mix-blend-mode: multiply;" points="26.4059864 19.7186395 28.1961905 17.3733333 26.2764626 15.4998639 25.5317007 15.8838095"></polygon>
                        <polygon id="路径" fill="#03BABC" opacity="0.7" style="mix-blend-mode: multiply;" points="29.9771429 19.7186395 28.1869388 17.3733333 30.1066667 15.4998639 30.8514286 15.8838095"></polygon>
                        <polygon id="路径" fill="url(#linearGradient-5)" points="26.4106122 19.1635374 28.1961905 17.3733333 26.2764626 15.4998639 25.5317007 15.8838095"></polygon>
                        <polygon id="路径" fill="url(#linearGradient-5)" points="29.9771429 19.1635374 28.1869388 17.3733333 30.1066667 15.4998639 30.8514286 15.8838095"></polygon>
                        <polygon id="路径" fill="#175C77" points="19.8187755 21.5088435 19.8187755 35.002449 28.1961905 35.002449 36.5782313 35.002449 36.5782313 21.5088435"></polygon>
                        <circle id="椭圆形" fill="#FFFFFF" cx="28.1869388" cy="18.5668027" r="1"></circle>
                        <circle id="椭圆形" fill="#FFFFFF" cx="28.1869388" cy="19.7602721" r="1"></circle>
                        <path d="M18.3801361,17.5768707 L14.1012245,15.8838095 L11.4367347,15.4998639 L8.7722449,15.8838095 L4.49333333,17.5768707 C3.64904958,17.9534772 3.08772167,18.7722294 3.04081633,19.6955102 L3.04081633,22.4340136 L19.8141497,22.4340136 L19.8141497,19.6955102 C19.7706648,18.7764603 19.2172099,17.9587753 18.3801361,17.5768707 L18.3801361,17.5768707 Z" id="路径" fill="#CECECE"></path>
                        <polygon id="路径" fill="#FFEFE1" points="13.3564626 15.4998639 11.4367347 17.3733333 9.5170068 15.4998639 9.5170068 12.6364626 13.3564626 12.6364626"></polygon>
                        <path d="M9.5170068,14.2092517 L9.82231293,14.5238095 C10.2473753,14.9612905 10.8313871,15.2081361 11.4413605,15.2081361 C12.051334,15.2081361 12.6353458,14.9612905 13.0604082,14.5238095 C13.2361905,14.3480272 13.3518367,14.2231293 13.3657143,14.2092517 L13.3657143,12.6364626 L9.5170068,12.6364626 L9.5170068,14.2092517 Z" id="路径" fill="url(#linearGradient-6)"></path>
                        <path d="M15.2808163,8.66748299 L15.2808163,8.66748299 L14.9014966,9.4492517 L14.9014966,11.1515646 C15.6231293,11.1515646 15.9053061,10.087619 15.9053061,9.30122449 C15.9053061,8.51482993 15.2808163,8.66748299 15.2808163,8.66748299 Z" id="路径" fill="#FFEFE1"></path>
                        <path d="M6.96816327,9.30585034 C6.96816327,10.087619 7.25034014,11.1561905 7.96734694,11.1561905 L7.96734694,9.4492517 L7.59265306,8.66748299 C7.59265306,8.66748299 6.96816327,8.52870748 6.96816327,9.30585034 Z" id="路径" fill="#FFEFE1"></path>
                        <path d="M14.9014966,6.96517007 L14.5268027,6.96517007 L14.5268027,8.20489796 C14.7229614,8.59479742 14.8497518,9.01586701 14.9014966,9.4492517 L15.2808163,8.66748299 L15.2808163,6.96517007 L14.9014966,6.96517007 Z" id="路径" fill="#564444"></path>
                        <path d="M12.3202721,6.0492517 L12.3202721,6.0492517 C12.3202721,6.0492517 11.6587755,8.20489796 7.96734694,8.20489796 L7.96734694,11.1515646 C7.96734694,12.0767347 9.04054422,13.6078912 9.69278912,14.1028571 C9.99047733,14.3257067 10.3524939,14.4458377 10.7243537,14.4451728 L12.1491156,14.4451728 C12.5194472,14.4451728 12.8797891,14.3250561 13.1760544,14.1028571 C13.8329252,13.6078912 14.9014966,12.0952381 14.9014966,11.1515646 L14.9014966,8.20489796 C13.7454326,7.94136303 12.7856536,7.13982714 12.3202721,6.0492517 Z" id="路径" fill="url(#linearGradient-7)"></path>
                        <path d="M11.4367347,3.02394558 C7.96734694,3.02394558 7.59265306,6.43782313 7.59265306,6.43782313 L7.59265306,8.66748299 L7.96734694,9.4492517 C8.0088301,9.02363168 8.10043976,8.60440101 8.24027211,8.20027211 C11.6911565,8.0985034 12.3202721,6.0492517 12.3202721,6.0492517 C12.7421081,7.03815804 13.578001,7.79113851 14.6054422,8.1077551 C14.7574578,8.54171718 14.8583656,8.99192127 14.9061224,9.4492517 L15.2854422,8.66748299 L15.2854422,6.42857143 C15.2854422,6.42857143 14.9014966,3.02394558 11.4367347,3.02394558 Z" id="路径" fill="#352525"></path>
                        <polygon id="路径" fill="#CECECE" opacity="0.7" style="mix-blend-mode: multiply;" points="9.64653061 19.7186395 11.4367347 17.3733333 9.5170068 15.4998639 8.7722449 15.8838095"></polygon>
                        <polygon id="路径" fill="#CECECE" opacity="0.7" style="mix-blend-mode: multiply;" points="13.2176871 19.7186395 11.427483 17.3733333 13.3472109 15.4998639 14.0919728 15.8838095"></polygon>
                        <polygon id="路径" fill="#FFFFFF" points="9.64653061 19.1635374 11.4367347 17.3733333 9.5170068 15.4998639 8.7722449 15.8838095"></polygon>
                        <polygon id="路径" fill="#FFFFFF" points="13.2176871 19.1635374 11.427483 17.3733333 13.3472109 15.4998639 14.0919728 15.8838095"></polygon>
                        <polygon id="路径" fill="#CECECE" points="3.05469388 21.5088435 3.05469388 35.002449 11.4367347 35.002449 19.8187755 35.002449 19.8187755 21.5088435"></polygon>
                    </g>
                </g>
                <rect id="矩形" x="0" y="0" width="48" height="48"></rect>
            </g>
        </g>
    </g>
</svg>